<mxfile host="app.diagrams.net" modified="2023-06-21T23:16:24.832Z" agent="Mozilla/5.0 (Macintosh; Intel Mac OS X 10_15_7) AppleWebKit/537.36 (KHTML, like Gecko) Chrome/114.0.0.0 Safari/537.36" version="21.5.0" etag="pTtx33f4BlHiQ7Z-xCi6" type="github">
  <diagram name="Page-1" id="hofaUZbXEGBqCQ4awkeS">
    <mxGraphModel>
      <root>
        <mxCell id="0" />
        <mxCell id="1" parent="0" />
      </root>
    </mxGraphModel>
  </diagram>
</mxfile>
